<svg xmlns="http://www.w3.org/2000/svg" viewBox="0 0 60 72">
  <ellipse cx="30" cy="68" rx="10" ry="4" fill="rgba(0,0,0,0.2)"/>
  <path d="M30 4 C14 4 4 16 4 30 C4 48 30 68 30 68 C30 68 56 48 56 30 C56 16 46 4 30 4 Z" fill="#1a4a5c" stroke="#fefcf8" stroke-width="2"/>
  <circle cx="30" cy="28" r="20" fill="#0d2d3f" stroke="#c9943a" stroke-width="2"/>
  <!-- street -->
  <rect x="10" y="38" width="40" height="10" fill="#4a3f35" rx="1"/>
  <!-- buildings -->
  <rect x="12" y="24" width="11" height="16" fill="#e8c97a" rx="1"/>
  <rect x="12" y="18" width="11" height="8" fill="#c9943a" rx="1"/>
  <rect x="26" y="27" width="9" height="13" fill="#fefcf8" rx="1"/>
  <rect x="37" y="20" width="11" height="20" fill="#e05a3a" rx="1"/>
  <polygon points="42,20 37,14 48,14" fill="#c9943a"/>
  <!-- string lights -->
  <path d="M12,16 Q22,12 30,16 Q38,12 48,16" fill="none" stroke="#c9943a" stroke-width="1"/>
  <circle cx="22" cy="13" r="1.5" fill="#c9943a"/>
  <circle cx="30" cy="17" r="1.5" fill="#c9943a"/>
  <circle cx="38" cy="13" r="1.5" fill="#c9943a"/>
</svg>
