<svg xmlns="http://www.w3.org/2000/svg" viewBox="0 0 60 72">
  <!-- teardrop shadow -->
  <ellipse cx="30" cy="68" rx="10" ry="4" fill="rgba(0,0,0,0.2)"/>
  <!-- teardrop shape -->
  <path d="M30 4 C14 4 4 16 4 30 C4 48 30 68 30 68 C30 68 56 48 56 30 C56 16 46 4 30 4 Z" fill="#0d2d3f" stroke="#fefcf8" stroke-width="2"/>
  <!-- icon circle -->
  <circle cx="30" cy="28" r="20" fill="#1a4a5c"/>
  <circle cx="30" cy="28" r="18" fill="#1a4a5c" stroke="#2ba99a" stroke-width="2"/>
  <!-- water -->
  <ellipse cx="30" cy="34" rx="14" ry="8" fill="#1a9b8a"/>
  <!-- sand -->
  <ellipse cx="30" cy="42" rx="14" ry="5" fill="#e8c97a"/>
  <!-- lighthouse -->
  <rect x="27" y="14" width="6" height="14" fill="#fefcf8" rx="1"/>
  <rect x="27" y="10" width="6" height="5" fill="#e05a3a" rx="1"/>
  <polygon points="30,6 25,10 35,10" fill="#c9943a"/>
  <!-- light beam -->
  <line x1="30" y1="12" x2="44" y2="22" stroke="#c9943a" stroke-width="1.5" stroke-opacity="0.6"/>
</svg>
