<svg xmlns="http://www.w3.org/2000/svg" viewBox="0 0 60 72">
  <ellipse cx="30" cy="68" rx="10" ry="4" fill="rgba(0,0,0,0.2)"/>
  <path d="M30 4 C14 4 4 16 4 30 C4 48 30 68 30 68 C30 68 56 48 56 30 C56 16 46 4 30 4 Z" fill="#522a0a" stroke="#fefcf8" stroke-width="2"/>
  <circle cx="30" cy="28" r="20" fill="#7a4020" stroke="#c9943a" stroke-width="2"/>
  <!-- sunset sky -->
  <path d="M14,22 A18,18 0 0,1 46,22 Z" fill="#e05a3a" opacity="0.7"/>
  <!-- water -->
  <ellipse cx="30" cy="36" rx="14" ry="8" fill="#1a7a6e"/>
  <!-- sand -->
  <ellipse cx="30" cy="43" rx="14" ry="5" fill="#c9943a"/>
  <!-- sun -->
  <circle cx="30" cy="22" r="7" fill="#c9943a"/>
  <line x1="30" y1="13" x2="30" y2="11" stroke="#c9943a" stroke-width="2"/>
  <line x1="38" y1="16" x2="40" y2="14" stroke="#c9943a" stroke-width="2"/>
  <line x1="22" y1="16" x2="20" y2="14" stroke="#c9943a" stroke-width="2"/>
</svg>
