<svg xmlns="http://www.w3.org/2000/svg" viewBox="0 0 60 72">
  <ellipse cx="30" cy="68" rx="10" ry="4" fill="rgba(0,0,0,0.2)"/>
  <path d="M30 4 C14 4 4 16 4 30 C4 48 30 68 30 68 C30 68 56 48 56 30 C56 16 46 4 30 4 Z" fill="#1a7a6e" stroke="#fefcf8" stroke-width="2"/>
  <circle cx="30" cy="28" r="20" fill="#2ba99a" stroke="#2ba99a" stroke-width="2"/>
  <!-- ocean -->
  <ellipse cx="30" cy="40" rx="18" ry="7" fill="#1a4a5c"/>
  <!-- sand -->
  <ellipse cx="30" cy="44" rx="18" ry="5" fill="#e8c97a"/>
  <!-- adult 1 -->
  <circle cx="20" cy="18" r="4.5" fill="#fefcf8"/>
  <rect x="16" y="22" width="8" height="12" fill="#e05a3a" rx="2"/>
  <!-- adult 2 -->
  <circle cx="32" cy="18" r="4.5" fill="#fefcf8"/>
  <rect x="28" y="22" width="8" height="12" fill="#c9943a" rx="2"/>
  <!-- child -->
  <circle cx="43" cy="22" r="3.5" fill="#fefcf8"/>
  <rect x="40" y="25" width="6" height="9" fill="#0d2d3f" rx="1"/>
  <!-- hands -->
  <line x1="24" y1="28" x2="28" y2="28" stroke="#fefcf8" stroke-width="1.5"/>
  <line x1="36" y1="28" x2="40" y2="27" stroke="#fefcf8" stroke-width="1.5"/>
</svg>
