<svg xmlns="http://www.w3.org/2000/svg" viewBox="0 0 60 72">
  <ellipse cx="30" cy="68" rx="10" ry="4" fill="rgba(0,0,0,0.2)"/>
  <path d="M30 4 C14 4 4 16 4 30 C4 48 30 68 30 68 C30 68 56 48 56 30 C56 16 46 4 30 4 Z" fill="#0d2d3f" stroke="#fefcf8" stroke-width="2"/>
  <circle cx="30" cy="28" r="20" fill="#0f1a35" stroke="#2ba99a" stroke-width="2"/>
  <!-- moon -->
  <circle cx="32" cy="22" r="11" fill="#c9943a"/>
  <circle cx="37" cy="18" r="8" fill="#0f1a35"/>
  <!-- stars -->
  <circle cx="14" cy="14" r="1.5" fill="#fefcf8"/>
  <circle cx="18" cy="10" r="1" fill="#fefcf8"/>
  <circle cx="10" cy="22" r="1" fill="#fefcf8"/>
  <circle cx="46" cy="12" r="1.5" fill="#c9943a"/>
  <!-- music note -->
  <circle cx="20" cy="42" r="3" fill="#2ba99a"/>
  <circle cx="28" cy="39" r="3" fill="#2ba99a"/>
  <line x1="20" y1="30" x2="20" y2="42" stroke="#2ba99a" stroke-width="1.5"/>
  <line x1="28" y1="27" x2="28" y2="39" stroke="#2ba99a" stroke-width="1.5"/>
  <line x1="20" y1="30" x2="28" y2="27" stroke="#2ba99a" stroke-width="1.5"/>
</svg>
