<svg xmlns="http://www.w3.org/2000/svg" viewBox="0 0 60 72">
  <ellipse cx="30" cy="68" rx="10" ry="4" fill="rgba(0,0,0,0.2)"/>
  <path d="M30 4 C14 4 4 16 4 30 C4 48 30 68 30 68 C30 68 56 48 56 30 C56 16 46 4 30 4 Z" fill="#c9943a" stroke="#fefcf8" stroke-width="2"/>
  <circle cx="30" cy="28" r="20" fill="#d4a843" stroke="#e05a3a" stroke-width="2"/>
  <!-- sky -->
  <path d="M12,10 A20,20 0 0,1 48,10 L48,28 L12,28 Z" fill="#e05a3a" opacity="0.6"/>
  <!-- ocean -->
  <ellipse cx="30" cy="36" rx="18" ry="9" fill="#1a7a6e"/>
  <!-- sun -->
  <circle cx="30" cy="28" r="9" fill="#c9943a"/>
  <!-- horizon -->
  <line x1="12" y1="28" x2="48" y2="28" stroke="#fefcf8" stroke-width="1.5" opacity="0.5"/>
  <!-- reflection -->
  <rect x="27" y="29" width="6" height="8" fill="#c9943a" opacity="0.5" rx="1"/>
  <!-- birds -->
  <path d="M16,18 Q18,15 20,18" fill="none" stroke="#0d2d3f" stroke-width="1.5"/>
  <path d="M22,14 Q24,11 26,14" fill="none" stroke="#0d2d3f" stroke-width="1.5"/>
</svg>
