<svg xmlns="http://www.w3.org/2000/svg" viewBox="0 0 60 72">
  <ellipse cx="30" cy="68" rx="10" ry="4" fill="rgba(0,0,0,0.2)"/>
  <path d="M30 4 C14 4 4 16 4 30 C4 48 30 68 30 68 C30 68 56 48 56 30 C56 16 46 4 30 4 Z" fill="#6a1a0a" stroke="#fefcf8" stroke-width="2"/>
  <circle cx="30" cy="28" r="20" fill="#8a2a10" stroke="#e05a3a" stroke-width="2"/>
  <!-- conga drum left -->
  <rect x="12" y="26" width="10" height="14" fill="#c9943a" rx="2.5"/>
  <ellipse cx="17" cy="26" rx="5" ry="2.5" fill="#e8c97a"/>
  <ellipse cx="17" cy="40" rx="5" ry="2.5" fill="#8B5E3C"/>
  <!-- conga drum right -->
  <rect x="24" y="29" width="8" height="12" fill="#a06020" rx="2"/>
  <ellipse cx="28" cy="29" rx="4" ry="2" fill="#e8c97a"/>
  <ellipse cx="28" cy="41" rx="4" ry="2" fill="#8B5E3C"/>
  <!-- music notes -->
  <text x="34" y="26" style="font-size:14px;fill:#c9943a;font-family:sans-serif;">♪</text>
  <text x="38" y="18" style="font-size:10px;fill:#e8c97a;font-family:sans-serif;">♫</text>
  <!-- maracas -->
  <circle cx="44" cy="20" r="5" fill="#e05a3a"/>
  <line x1="44" y1="25" x2="44" y2="33" stroke="#8B5E3C" stroke-width="2"/>
</svg>
