<svg xmlns="http://www.w3.org/2000/svg" viewBox="0 0 60 72">
  <ellipse cx="30" cy="68" rx="10" ry="4" fill="rgba(0,0,0,0.2)"/>
  <path d="M30 4 C14 4 4 16 4 30 C4 48 30 68 30 68 C30 68 56 48 56 30 C56 16 46 4 30 4 Z" fill="#522a0a" stroke="#fefcf8" stroke-width="2"/>
  <circle cx="30" cy="28" r="20" fill="#7a4020" stroke="#c9943a" stroke-width="2"/>
  <!-- kiosk body -->
  <rect x="14" y="26" width="32" height="16" fill="#e8c97a" rx="2"/>
  <!-- awning -->
  <rect x="12" y="20" width="36" height="8" fill="#e05a3a" rx="2"/>
  <!-- awning stripes -->
  <rect x="16" y="20" width="5" height="8" fill="#c9943a"/>
  <rect x="26" y="20" width="5" height="8" fill="#c9943a"/>
  <rect x="36" y="20" width="5" height="8" fill="#c9943a"/>
  <!-- counter items -->
  <circle cx="22" cy="30" r="3.5" fill="#c9943a"/>
  <rect x="27" y="26" width="5" height="7" fill="#e05a3a" rx="1"/>
  <!-- legs -->
  <rect x="16" y="42" width="3" height="6" fill="#8B5E3C"/>
  <rect x="41" y="42" width="3" height="6" fill="#8B5E3C"/>
</svg>
