<svg xmlns="http://www.w3.org/2000/svg" viewBox="0 0 60 72">
  <ellipse cx="30" cy="68" rx="10" ry="4" fill="rgba(0,0,0,0.2)"/>
  <path d="M30 4 C14 4 4 16 4 30 C4 48 30 68 30 68 C30 68 56 48 56 30 C56 16 46 4 30 4 Z" fill="#4a2010" stroke="#fefcf8" stroke-width="2"/>
  <circle cx="30" cy="28" r="20" fill="#6a3018" stroke="#c9943a" stroke-width="2"/>
  <!-- cup -->
  <rect x="20" y="26" width="20" height="14" fill="#fefcf8" rx="3"/>
  <rect x="20" y="26" width="20" height="5" fill="#c9943a" rx="3"/>
  <!-- steam -->
  <path d="M24,20 Q22,15 24,11" fill="none" stroke="#fefcf8" stroke-width="1.5" stroke-linecap="round" opacity="0.7"/>
  <path d="M30,19 Q28,14 30,10" fill="none" stroke="#fefcf8" stroke-width="1.5" stroke-linecap="round" opacity="0.7"/>
  <path d="M36,20 Q34,15 36,11" fill="none" stroke="#fefcf8" stroke-width="1.5" stroke-linecap="round" opacity="0.7"/>
  <!-- handle -->
  <path d="M40,28 Q48,28 48,34 Q48,40 40,40" fill="none" stroke="#fefcf8" stroke-width="2" stroke-linecap="round"/>
  <!-- saucer -->
  <ellipse cx="30" cy="41" rx="16" ry="4" fill="#e8c97a"/>
</svg>
