<svg xmlns="http://www.w3.org/2000/svg" viewBox="0 0 60 72">
  <ellipse cx="30" cy="68" rx="10" ry="4" fill="rgba(0,0,0,0.2)"/>
  <path d="M30 4 C14 4 4 16 4 30 C4 48 30 68 30 68 C30 68 56 48 56 30 C56 16 46 4 30 4 Z" fill="#3a1a6a" stroke="#fefcf8" stroke-width="2"/>
  <circle cx="30" cy="28" r="20" fill="#5a2ab0" stroke="#7c3aed" stroke-width="2"/>
  <!-- cocktail glass -->
  <path d="M22,12 L38,12 L32,26 L28,26 Z" fill="#2ba99a" opacity="0.8"/>
  <rect x="28" y="26" width="4" height="10" fill="#fefcf8"/>
  <line x1="22" y1="36" x2="38" y2="36" stroke="#fefcf8" stroke-width="2"/>
  <!-- garnish lime -->
  <circle cx="36" cy="16" r="3" fill="#c9943a"/>
  <line x1="36" y1="12" x2="38" y2="8" stroke="#1a7a6e" stroke-width="1.5"/>
  <!-- bubbles -->
  <circle cx="27" cy="20" r="1.5" fill="#fefcf8" opacity="0.6"/>
  <circle cx="31" cy="16" r="1" fill="#fefcf8" opacity="0.5"/>
  <!-- medalla bottles hint -->
  <rect x="12" y="36" width="8" height="6" fill="#c9943a" rx="1"/>
  <rect x="40" y="36" width="8" height="6" fill="#c9943a" rx="1"/>
</svg>
