<svg xmlns="http://www.w3.org/2000/svg" viewBox="0 0 60 72">
  <ellipse cx="30" cy="68" rx="10" ry="4" fill="rgba(0,0,0,0.2)"/>
  <path d="M30 4 C14 4 4 16 4 30 C4 48 30 68 30 68 C30 68 56 48 56 30 C56 16 46 4 30 4 Z" fill="#7a1a1a" stroke="#fefcf8" stroke-width="2"/>
  <circle cx="30" cy="28" r="20" fill="#a02020" stroke="#e05a3a" stroke-width="2"/>
  <!-- crab body -->
  <ellipse cx="30" cy="30" rx="11" ry="8" fill="#e05a3a"/>
  <!-- eyes -->
  <circle cx="24" cy="24" r="2.5" fill="#fefcf8"/>
  <circle cx="36" cy="24" r="2.5" fill="#fefcf8"/>
  <circle cx="24" cy="24" r="1.2" fill="#0d2d3f"/>
  <circle cx="36" cy="24" r="1.2" fill="#0d2d3f"/>
  <!-- eye stalks -->
  <line x1="24" y1="24" x2="22" y2="20" stroke="#c9943a" stroke-width="2"/>
  <line x1="36" y1="24" x2="38" y2="20" stroke="#c9943a" stroke-width="2"/>
  <!-- claws -->
  <ellipse cx="14" cy="26" rx="6" ry="4" fill="#e05a3a" transform="rotate(-20,14,26)"/>
  <ellipse cx="8" cy="22" rx="4" ry="3" fill="#c9943a" transform="rotate(-30,8,22)"/>
  <ellipse cx="46" cy="26" rx="6" ry="4" fill="#e05a3a" transform="rotate(20,46,26)"/>
  <ellipse cx="52" cy="22" rx="4" ry="3" fill="#c9943a" transform="rotate(30,52,22)"/>
  <!-- legs -->
  <line x1="22" y1="30" x2="14" y2="34" stroke="#c9943a" stroke-width="1.5"/>
  <line x1="22" y1="34" x2="14" y2="40" stroke="#c9943a" stroke-width="1.5"/>
  <line x1="38" y1="30" x2="46" y2="34" stroke="#c9943a" stroke-width="1.5"/>
  <line x1="38" y1="34" x2="46" y2="40" stroke="#c9943a" stroke-width="1.5"/>
  <!-- shell lines -->
  <path d="M22,28 Q30,24 38,28" fill="none" stroke="#c9943a" stroke-width="1.2"/>
  <path d="M20,33 Q30,29 40,33" fill="none" stroke="#c9943a" stroke-width="1.2"/>
</svg>
